<?xml version="1.0" encoding="UTF-8"?>
<svg width="90px" height="90px" viewBox="0 0 90 90" version="1.1" xmlns="http://www.w3.org/2000/svg" xmlns:xlink="http://www.w3.org/1999/xlink">
    <!-- Generator: Sketch 50.2 (55047) - http://www.bohemiancoding.com/sketch -->
    <title>Group</title>
    <desc>Created with Sketch.</desc>
    <defs></defs>
    <g id="BusyBus" stroke="none" stroke-width="1" fill="none" fill-rule="evenodd">
        <g id="busybus-fe-challenge-copy-5" transform="translate(-21.000000, -138.000000)">
            <g id="Group" transform="translate(21.000000, 138.000000)">
                <rect id="Rectangle-3" fill="#EFEFF4" x="0" y="0" width="90" height="90" rx="10"></rect>
                <path d="M67.4147227,31.0857747 L67.4147227,25.9971845 C67.4147227,22.6037055 63.8753915,19.2134831 45.505656,19.2134831 C27.1359205,19.2134831 23.5965893,22.6069622 23.5965893,25.9971845 L23.5965893,31.0857747 C21.7415753,31.0857747 20.2247191,32.6123517 20.2247191,34.4792537 L20.2247191,37.8727327 C20.2247191,39.7396347 21.7415753,41.2662117 23.5965893,41.2662117 L23.5965893,59.9254613 C23.5965893,61.7923633 24.6078268,63.4874744 26.124683,64.3366583 L26.124683,67.5583466 C26.124683,69.9341075 27.9796971,71.7977528 30.3370939,71.7977528 C32.6977266,71.7977528 34.5495047,69.9308508 34.5495047,67.5583466 L34.5495047,65.0108762 L56.4585713,65.0108762 L56.4585713,67.5551713 C56.4585713,69.9309323 58.3135854,71.7945775 60.6709822,71.7945775 C63.0316149,71.7945775 64.883393,69.9276756 64.883393,67.5551713 L64.883393,64.3334831 C66.4002492,63.4842991 67.4114867,61.789188 67.4114867,59.922286 L67.4146466,41.2630364 C69.2696606,41.2630364 70.7865169,39.7364594 70.7865169,37.8695574 L70.7865169,34.4760784 C70.7865169,32.6123517 69.2696606,31.0857747 67.4146466,31.0857747 L67.4147227,31.0857747 Z M34.0649978,24.2696629 L57.9574853,24.2696629 C58.9814022,24.2696629 59.6629213,24.8752753 59.6629213,25.785095 C59.6629213,26.6949146 58.9813777,27.300527 57.9574853,27.300527 L34.0649978,27.3033708 C33.0410808,27.3033708 32.3595617,26.6977584 32.3595617,25.7879388 C32.3563614,24.8752585 33.0411054,24.269668 34.0649978,24.269668 L34.0649978,24.2696629 Z M30.8426966,61.6853933 C28.8955579,61.6853933 27.3033708,60.0932061 27.3033708,58.1460674 C27.3033708,56.1989287 28.8955579,54.6067416 30.8426966,54.6067416 C32.7898353,54.6067416 34.3820225,56.1989287 34.3820225,58.1460674 C34.3820225,60.0932061 32.7898353,61.6853933 30.8426966,61.6853933 Z M61.1797753,61.6853933 C59.2326366,61.6853933 57.6404494,60.0932061 57.6404494,58.1460674 C57.6404494,56.1989287 59.2326366,54.6067416 61.1797753,54.6067416 C63.126914,54.6067416 64.7191011,56.1989287 64.7191011,58.1460674 C64.7191011,60.0932061 63.126914,61.6853933 61.1797753,61.6853933 Z M64.7191011,44.5866014 C64.7191011,47.232988 62.5093886,49.5505618 59.6172529,49.5505618 L32.405219,49.5505618 C29.5130833,49.5505618 27.3033708,47.232988 27.3033708,44.5866014 L27.3033708,36.312275 C27.3033708,33.4983051 29.5130833,31.3483146 32.405219,31.3483146 L59.6139877,31.3483146 C62.5061234,31.3483146 64.7158359,33.4983051 64.7158359,36.312275 L64.7191011,44.5866014 Z" id="Shape" fill="#00829A" fill-rule="nonzero"></path>
            </g>
        </g>
    </g>
</svg>