<?xml version="1.0" encoding="UTF-8"?>
<svg width="18px" height="22px" viewBox="0 0 18 22" version="1.1" xmlns="http://www.w3.org/2000/svg" xmlns:xlink="http://www.w3.org/1999/xlink">
    <!-- Generator: Sketch 50.2 (55047) - http://www.bohemiancoding.com/sketch -->
    <title>np_refresh_662992_000000</title>
    <desc>Created with Sketch.</desc>
    <defs></defs>
    <g id="BusyBus" stroke="none" stroke-width="1" fill="none" fill-rule="evenodd">
        <g id="busybus-fe-challenge-copy-5" transform="translate(-343.000000, -34.000000)" fill="#FFFFFF" fill-rule="nonzero" stroke="#FFFFFF" stroke-width="0.5">
            <g id="np_refresh_662992_000000" transform="translate(344.000000, 35.000000)">
                <path d="M3.47206119,15.7080984 C3.77608953,15.4040701 3.77608953,14.9115402 3.47206119,14.6074994 C0.923081052,12.0585193 0.923081052,7.9102584 3.47206119,5.36143392 C4.524,4.30949512 5.8884788,3.66010059 7.34184112,3.49226484 L6.55745572,4.34719667 C6.26680505,4.66459334 6.28869436,5.15714192 6.60488309,5.4465504 C6.75446581,5.58397273 6.9429518,5.65085797 7.13024541,5.65085797 C7.34063317,5.65085797 7.55103339,5.56572904 7.70426795,5.39790574 L9.87990617,3.02526055 C10.0367864,2.85378851 10.1085376,2.62271626 10.0769163,2.39410972 C10.045298,2.16426409 9.91395588,1.96118003 9.71696135,1.83833086 L6.98436125,0.136997531 C6.61951852,-0.0891993559 6.13917391,0.0214676329 5.91296457,0.387518304 C5.6855504,0.752361031 5.79743468,1.23270564 6.16226806,1.45891498 L6.97706999,1.9660336 C5.24774847,2.20682544 3.62907214,3.00094289 2.37162716,4.25963317 C-0.784282662,7.415543 -0.784282662,12.5511737 2.37162716,15.7070835 C2.52242405,15.8590977 2.72186871,15.935715 2.92130403,15.935715 C3.12061481,15.9355126 3.32004079,15.8601126 3.47206119,15.7080984 Z" id="Shape"></path>
                <path d="M13.1497799,5.39682233 C15.6987601,7.94580247 15.6987601,12.0940633 13.1497799,14.6428878 C12.0978411,15.6948266 10.7333623,16.3442211 9.2812453,16.5120569 L10.0644165,15.6571251 C10.3550672,15.3397284 10.3331779,14.8471798 10.0169892,14.5577713 C9.69959249,14.2671207 9.20825808,14.28901 8.91763543,14.6051987 L6.74199721,16.9778439 C6.58511702,17.1493159 6.51336575,17.3803882 6.54498712,17.6089947 C6.57660537,17.8388404 6.7079475,18.0419244 6.90494203,18.1647736 L9.63754214,19.8661069 C9.76523553,19.9451557 9.90752077,19.9840714 10.0473714,19.9840714 C10.3076211,19.9840714 10.5617751,19.8539465 10.7089388,19.6168003 C10.936353,19.2519576 10.8244687,18.771613 10.4596353,18.5454037 L9.64361922,18.0370709 C11.3729407,17.796279 12.9928624,17.0033757 14.2503074,15.7446855 C17.4062172,12.5887756 17.4062172,7.45314493 14.2503074,4.2972351 C13.946279,3.99320676 13.4537491,3.99320676 13.1497083,4.2972351 C12.84568,4.59883199 12.84568,5.09257917 13.1497083,5.39658884 L13.1497799,5.39682233 Z" id="Shape"></path>
            </g>
        </g>
    </g>
</svg>